<?xml version="1.0" standalone="no"?>
<!DOCTYPE svg PUBLIC "-//W3C//DTD SVG 20010904//EN"
 "http://www.w3.org/TR/2001/REC-SVG-20010904/DTD/svg10.dtd">
<svg version="1.0" xmlns="http://www.w3.org/2000/svg"
 width="512.000000pt" height="512.000000pt" viewBox="0 0 512.000000 512.000000"
 preserveAspectRatio="xMidYMid meet">
<metadata>
Created by potrace 1.14, written by Peter Selinger 2001-2017
</metadata>
<g transform="translate(0.000000,512.000000) scale(0.100000,-0.100000)"
fill="#000000" stroke="none">
<path d="M1787 5106 c-85 -31 -142 -107 -150 -200 -6 -66 16 -128 62 -174 47
-48 74 -63 130 -71 l46 -6 1 -445 c0 -475 -1 -491 -50 -554 -13 -17 -54 -47
-92 -66 -194 -97 -361 -217 -508 -365 -121 -123 -139 -144 -219 -260 -175
-254 -277 -521 -322 -840 -13 -100 -13 -395 1 -480 32 -197 60 -303 119 -451
239 -596 752 -1027 1377 -1155 138 -28 206 -34 383 -34 181 0 255 8 403 41 97
22 160 41 337 107 37 13 235 115 255 130 8 7 26 18 40 26 59 33 211 155 289
231 145 144 264 307 352 483 48 94 108 235 114 268 2 9 12 47 24 85 22 77 46
200 58 296 10 82 10 343 1 431 -23 208 -95 451 -189 640 -37 74 -120 211 -131
215 -5 2 -8 8 -8 13 0 28 -258 311 -346 379 -124 97 -249 177 -372 239 -73 37
-95 57 -123 110 -22 43 -22 47 -23 493 -1 247 1 453 4 457 3 4 17 8 33 9 66 5
145 59 177 122 64 126 4 281 -127 326 -56 20 -1491 19 -1546 0z"/>
</g>
</svg>
